<svg width="744" height="540" viewBox="0 0 744 540" fill="none" xmlns="http://www.w3.org/2000/svg">
<g clip-path="url(#clip0_0_3)">
<path d="M474.114 404.286V534.286H148.415C111.306 534.286 81.1142 505.126 81.1142 469.286C81.1142 433.446 111.306 404.286 148.415 404.286H474.114Z" fill="#F2F2F2"/>
<path d="M482.114 533.286C482.114 534.612 481.587 535.883 480.649 536.821C479.712 537.759 478.44 538.285 477.114 538.286H142.614C124.447 538.286 107.024 531.069 94.1774 518.223C81.3311 505.377 74.1142 487.953 74.1142 469.786C74.1142 451.619 81.3311 434.195 94.1774 421.349C107.024 408.503 124.447 401.286 142.614 401.286H477.114C478.44 401.286 479.712 401.813 480.65 402.75C481.587 403.688 482.114 404.96 482.114 406.286C482.114 407.612 481.587 408.884 480.65 409.822C479.712 410.759 478.44 411.286 477.114 411.286H142.614C127.099 411.286 112.219 417.449 101.248 428.42C90.2775 439.391 84.1142 454.271 84.1142 469.786C84.1142 485.301 90.2775 500.181 101.248 511.152C112.219 522.123 127.099 528.286 142.614 528.286H477.114C478.44 528.287 479.712 528.813 480.649 529.751C481.587 530.689 482.114 531.96 482.114 533.286Z" fill="#1E40AF"/>
<path d="M474.114 434.286H124.114C123.849 434.286 123.595 434.181 123.407 433.993C123.22 433.806 123.114 433.551 123.114 433.286C123.114 433.021 123.22 432.766 123.407 432.579C123.595 432.391 123.849 432.286 124.114 432.286H474.114C474.379 432.286 474.634 432.391 474.821 432.579C475.009 432.766 475.114 433.021 475.114 433.286C475.114 433.551 475.009 433.806 474.821 433.993C474.634 434.181 474.379 434.286 474.114 434.286Z" fill="#CCCCCC"/>
<path d="M474.114 458.286H124.114C123.849 458.286 123.595 458.181 123.407 457.993C123.22 457.806 123.114 457.551 123.114 457.286C123.114 457.021 123.22 456.766 123.407 456.579C123.595 456.391 123.849 456.286 124.114 456.286H474.114C474.379 456.286 474.634 456.391 474.821 456.579C475.009 456.766 475.114 457.021 475.114 457.286C475.114 457.551 475.009 457.806 474.821 457.993C474.634 458.181 474.379 458.286 474.114 458.286Z" fill="#CCCCCC"/>
<path d="M474.114 482.286H124.114C123.849 482.286 123.595 482.181 123.407 481.993C123.22 481.806 123.114 481.551 123.114 481.286C123.114 481.021 123.22 480.766 123.407 480.579C123.595 480.391 123.849 480.286 124.114 480.286H474.114C474.379 480.286 474.634 480.391 474.821 480.579C475.009 480.766 475.114 481.021 475.114 481.286C475.114 481.551 475.009 481.806 474.821 481.993C474.634 482.181 474.379 482.286 474.114 482.286Z" fill="#CCCCCC"/>
<path d="M474.114 506.286H124.114C123.849 506.286 123.595 506.181 123.407 505.993C123.22 505.806 123.114 505.551 123.114 505.286C123.114 505.021 123.22 504.766 123.407 504.579C123.595 504.391 123.849 504.286 124.114 504.286H474.114C474.379 504.286 474.634 504.391 474.821 504.579C475.009 504.766 475.114 505.021 475.114 505.286C475.114 505.551 475.009 505.806 474.821 505.993C474.634 506.181 474.379 506.286 474.114 506.286Z" fill="#CCCCCC"/>
<path d="M725.832 428.757L644.267 529.985L390.652 325.635C361.756 302.352 356.541 260.703 379.028 232.795C401.515 204.887 443.32 201.124 472.216 224.407L725.832 428.757Z" fill="#F2F2F2"/>
<path d="M651.124 534.226C650.291 535.258 649.083 535.918 647.765 536.059C646.447 536.201 645.126 535.814 644.093 534.982L383.625 325.11C369.478 313.711 360.439 297.16 358.496 279.097C356.553 261.034 361.865 242.939 373.263 228.792C384.662 214.646 401.213 205.606 419.276 203.663C437.34 201.72 455.435 207.032 469.581 218.431L730.05 428.303C730.562 428.715 730.987 429.224 731.302 429.8C731.617 430.376 731.816 431.009 731.886 431.662C731.957 432.315 731.898 432.976 731.713 433.606C731.528 434.236 731.221 434.824 730.808 435.335C730.396 435.847 729.887 436.272 729.311 436.587C728.734 436.902 728.101 437.1 727.448 437.17C726.795 437.24 726.135 437.181 725.505 436.995C724.874 436.81 724.287 436.502 723.776 436.09L463.307 226.218C457.325 221.394 450.452 217.796 443.08 215.629C435.707 213.463 427.98 212.77 420.34 213.59C412.699 214.411 405.295 216.728 398.551 220.411C391.806 224.093 385.854 229.068 381.032 235.052C376.211 241.035 372.616 247.91 370.452 255.284C368.288 262.657 367.598 270.384 368.422 278.024C369.245 285.664 371.566 293.067 375.251 299.81C378.936 306.553 383.913 312.504 389.899 317.323L650.367 527.196C651.4 528.028 652.059 529.236 652.201 530.554C652.343 531.872 651.955 533.193 651.124 534.226Z" fill="#CCCCCC"/>
<path d="M707.009 452.117L434.471 232.52C434.369 232.438 434.284 232.336 434.221 232.221C434.158 232.105 434.118 231.979 434.104 231.848C434.09 231.718 434.102 231.586 434.139 231.46C434.176 231.334 434.237 231.216 434.32 231.114C434.402 231.012 434.504 230.927 434.619 230.864C434.734 230.801 434.861 230.761 434.991 230.747C435.122 230.733 435.254 230.745 435.38 230.782C435.506 230.819 435.623 230.88 435.726 230.963L708.264 450.56C708.366 450.642 708.451 450.744 708.515 450.859C708.578 450.975 708.617 451.101 708.632 451.232C708.646 451.362 708.634 451.495 708.597 451.621C708.56 451.747 708.498 451.865 708.416 451.967C708.334 452.069 708.232 452.154 708.116 452.217C708.001 452.28 707.874 452.32 707.744 452.334C707.613 452.348 707.481 452.336 707.355 452.299C707.229 452.262 707.111 452.2 707.009 452.117Z" fill="#CCCCCC"/>
<path d="M691.951 470.806L419.413 251.208C419.207 251.042 419.075 250.8 419.047 250.537C419.019 250.273 419.096 250.009 419.263 249.803C419.429 249.597 419.67 249.465 419.934 249.436C420.197 249.408 420.461 249.485 420.668 249.651L693.206 469.248C693.308 469.331 693.393 469.432 693.456 469.548C693.52 469.663 693.559 469.789 693.573 469.92C693.588 470.051 693.576 470.183 693.539 470.309C693.502 470.435 693.44 470.553 693.358 470.655C693.275 470.758 693.174 470.843 693.058 470.906C692.943 470.969 692.816 471.008 692.686 471.022C692.555 471.036 692.423 471.024 692.297 470.987C692.171 470.95 692.053 470.888 691.951 470.806Z" fill="#CCCCCC"/>
<path d="M676.893 489.494L404.355 269.897C404.148 269.73 404.016 269.489 403.988 269.225C403.959 268.961 404.037 268.697 404.203 268.491C404.37 268.284 404.611 268.152 404.875 268.124C405.139 268.095 405.403 268.173 405.61 268.339L678.148 487.937C678.25 488.019 678.335 488.121 678.398 488.236C678.461 488.351 678.5 488.478 678.514 488.608C678.528 488.739 678.517 488.871 678.48 488.997C678.443 489.123 678.381 489.24 678.299 489.343C678.216 489.445 678.115 489.53 677.999 489.593C677.884 489.656 677.758 489.695 677.627 489.71C677.497 489.724 677.364 489.712 677.238 489.675C677.112 489.638 676.995 489.576 676.893 489.494Z" fill="#CCCCCC"/>
<path d="M661.835 508.182L389.297 288.585C389.194 288.503 389.109 288.401 389.046 288.286C388.983 288.17 388.944 288.044 388.93 287.913C388.916 287.783 388.927 287.651 388.964 287.525C389.001 287.399 389.063 287.281 389.145 287.179C389.228 287.077 389.329 286.992 389.445 286.929C389.56 286.866 389.686 286.826 389.817 286.812C389.948 286.798 390.08 286.81 390.206 286.847C390.332 286.884 390.449 286.945 390.551 287.028L663.089 506.625C663.192 506.707 663.277 506.809 663.34 506.924C663.403 507.04 663.443 507.166 663.457 507.297C663.471 507.427 663.46 507.56 663.423 507.686C663.386 507.812 663.324 507.929 663.242 508.032C663.159 508.134 663.057 508.219 662.942 508.282C662.827 508.345 662.7 508.385 662.569 508.399C662.439 508.413 662.307 508.401 662.18 508.364C662.054 508.326 661.937 508.265 661.835 508.182Z" fill="#CCCCCC"/>
<path d="M743 539.286H1C0.734784 539.286 0.480429 539.181 0.292892 538.993C0.105356 538.806 0 538.551 0 538.286C0 538.021 0.105356 537.766 0.292892 537.579C0.480429 537.391 0.734784 537.286 1 537.286H743C743.265 537.286 743.52 537.391 743.707 537.579C743.895 537.766 744 538.021 744 538.286C744 538.551 743.895 538.806 743.707 538.993C743.52 539.181 743.265 539.286 743 539.286Z" fill="#CCCCCC"/>
<path d="M338.081 390.622L326.649 390.621L321.212 346.525L338.085 346.527L338.081 390.622Z" fill="#FFB8B8"/>
<path d="M318.482 387.355H340.53V401.236H304.6C304.6 399.413 304.96 397.608 305.657 395.924C306.355 394.24 307.377 392.71 308.666 391.42C309.955 390.131 311.486 389.109 313.17 388.411C314.854 387.714 316.659 387.355 318.482 387.355Z" fill="#2F2E41"/>
<path d="M221.286 390.622L209.854 390.621L204.417 346.525L221.29 346.527L221.286 390.622Z" fill="#FFB8B8"/>
<path d="M201.688 387.355H223.736V401.236H187.806C187.806 399.413 188.165 397.608 188.863 395.924C189.56 394.24 190.583 392.71 191.872 391.42C193.161 390.131 194.691 389.109 196.375 388.411C198.06 387.714 199.865 387.355 201.688 387.355Z" fill="#2F2E41"/>
<path d="M259.471 63.5331V58.533C259.471 49.9798 262.869 41.7769 268.917 35.7288C274.965 29.6808 283.168 26.283 291.721 26.283C300.274 26.283 308.477 29.6808 314.525 35.7288C320.573 41.7769 323.971 49.9798 323.971 58.533V63.5331C323.971 69.6994 321.521 75.6131 317.161 79.9733C312.801 84.3335 306.887 86.7831 300.721 86.7831H282.721C279.668 86.7831 276.644 86.1817 273.824 85.0133C271.003 83.8449 268.44 82.1323 266.281 79.9733C264.122 77.8144 262.409 75.2513 261.241 72.4305C260.072 69.6097 259.471 66.5863 259.471 63.5331Z" fill="#2F2E41"/>
<path d="M291.721 88.5035C305.286 88.5035 316.282 77.5072 316.282 63.9425C316.282 50.3778 305.286 39.3815 291.721 39.3815C278.156 39.3815 267.16 50.3778 267.16 63.9425C267.16 77.5072 278.156 88.5035 291.721 88.5035Z" fill="#FFB8B8"/>
<path d="M158.125 148.356C159.121 147.414 160.312 146.703 161.614 146.272C162.915 145.841 164.295 145.7 165.656 145.86C167.018 146.02 168.328 146.477 169.494 147.198C170.66 147.919 171.653 148.886 172.405 150.033L193.459 146.05L199 158.255L169.188 163.462C167.178 164.596 164.822 164.954 162.566 164.468C160.31 163.982 158.311 162.685 156.947 160.823C155.583 158.961 154.95 156.663 155.167 154.365C155.384 152.068 156.436 149.929 158.125 148.356Z" fill="#FFB8B8"/>
<path d="M272.848 104.388L238.322 127.133L180.064 145.736C179.292 145.984 178.629 146.492 178.189 147.174C177.75 147.856 177.56 148.668 177.652 149.474L178.923 160.421C178.979 160.905 179.136 161.373 179.384 161.793C179.631 162.213 179.964 162.577 180.36 162.861C180.757 163.146 181.208 163.344 181.685 163.443C182.163 163.543 182.656 163.542 183.133 163.439L237.963 151.687C240.616 151.121 243.125 150.017 245.334 148.441L284.122 120.844C285.528 119.838 286.65 118.486 287.379 116.918C288.108 115.35 288.418 113.62 288.28 111.897C288.138 110.171 287.549 108.512 286.571 107.083C285.593 105.654 284.26 104.504 282.703 103.746C281.146 102.989 279.418 102.65 277.69 102.762C275.962 102.875 274.294 103.435 272.848 104.388Z" fill="#CCCCCC"/>
<path d="M326.853 378.109C325.976 378.109 325.117 377.853 324.382 377.374C323.648 376.894 323.068 376.211 322.716 375.407L270.306 245.907C270.183 245.626 269.978 245.389 269.717 245.228C269.456 245.068 269.152 244.991 268.846 245.008C268.54 245.025 268.247 245.136 268.006 245.325C267.765 245.514 267.587 245.772 267.497 246.065L224.739 372.138C224.558 372.725 224.26 373.269 223.861 373.736C223.463 374.203 222.973 374.583 222.422 374.854C221.871 375.125 221.271 375.28 220.658 375.31C220.045 375.341 219.432 375.245 218.857 375.03L204.519 369.653C203.74 369.363 203.058 368.864 202.546 368.21C202.035 367.556 201.715 366.773 201.622 365.948C195.171 309.756 251.422 167.918 251.991 166.492L252.148 166.097L303.425 177.44L303.532 177.556C323.99 199.874 340.806 340.638 343.969 368.63C344.087 369.641 343.857 370.662 343.317 371.525C342.777 372.388 341.959 373.041 340.998 373.377L328.341 377.853C327.864 378.022 327.36 378.109 326.853 378.109Z" fill="#2F2E41"/>
<path d="M282.673 182.006C270.249 182.006 256.398 179.529 252.135 169.305L252.037 169.07L252.169 168.852C255.534 163.331 259.982 153.912 257.591 152.144C252.882 148.662 250.597 142.934 250.8 135.118C251.24 118.153 262.8 103.09 279.566 97.636C284.245 96.1384 289.008 94.9122 293.829 93.9636C297.344 93.2545 300.972 93.3325 304.453 94.1921C307.934 95.0517 311.181 96.6716 313.962 98.9353C316.777 101.214 319.053 104.088 320.626 107.351C322.198 110.613 323.029 114.184 323.057 117.806C323.233 135.937 320.442 161.189 306.145 178.526C305.475 179.331 304.543 179.873 303.512 180.057C296.634 181.302 289.662 181.953 282.673 182.006Z" fill="#CCCCCC"/>
<path d="M278.051 181.327C278.727 178.901 280.333 176.841 282.52 175.593C284.707 174.345 287.298 174.011 289.73 174.663C290.226 174.801 290.71 174.981 291.177 175.199L307.164 160.65L318.282 168.14L295.42 188.371C294.388 190.232 292.763 191.695 290.803 192.526C288.844 193.357 286.663 193.509 284.607 192.958C283.41 192.63 282.289 192.068 281.31 191.305C280.331 190.541 279.513 189.591 278.903 188.51C278.294 187.428 277.904 186.236 277.758 185.004C277.612 183.771 277.711 182.521 278.051 181.327Z" fill="#FFB8B8"/>
<path d="M304.632 181.511C303.594 181.512 302.589 181.153 301.786 180.496L295.482 175.345C294.956 174.915 294.535 174.372 294.249 173.757C293.963 173.141 293.82 172.469 293.83 171.791C293.841 171.112 294.004 170.444 294.309 169.838C294.614 169.232 295.052 168.702 295.591 168.289L322.033 148.01C322.346 147.768 322.552 147.413 322.605 147.02C322.658 146.628 322.554 146.231 322.316 145.915L305.996 124.339C304.1 121.84 303.149 118.752 303.311 115.619C303.473 112.487 304.739 109.513 306.883 107.224C309.142 104.785 312.234 103.284 315.548 103.019C318.861 102.754 322.154 103.745 324.771 105.794L324.874 105.903L341.916 130.305C343.759 131.75 345.243 133.601 346.252 135.714C347.261 137.828 347.768 140.146 347.733 142.487C347.698 144.829 347.122 147.13 346.051 149.212C344.979 151.295 343.441 153.101 341.556 154.49L307.31 180.629C306.535 181.202 305.596 181.511 304.632 181.511Z" fill="#CCCCCC"/>
<path d="M269.965 57.033V44.8469L291.721 35.3469L312.465 44.8469V57.033C312.465 57.5635 312.255 58.0722 311.879 58.4473C311.504 58.8223 310.996 59.033 310.465 59.033H271.965C271.435 59.033 270.926 58.8223 270.551 58.4473C270.176 58.0722 269.965 57.5635 269.965 57.033Z" fill="#2F2E41"/>
<path d="M290.722 27.8997C287.523 17.6611 294.241 5.92731 304.173 1.87464C314.105 -2.17803 325.986 0.654912 334.367 7.35053C342.747 14.0462 347.946 24.0749 350.701 34.4417C353.456 44.8085 353.979 55.6185 354.488 66.3331C366.69 68.5744 374.991 83.0473 370.763 94.7114C366.536 106.375 350.891 112.17 340.086 106.074C329.281 99.9772 326.151 83.5891 333.949 73.94C337.639 69.3743 339.7 63.708 339.807 57.8385C339.913 51.9691 338.057 46.2321 334.535 41.536C331.012 36.84 326.023 33.4535 320.359 31.9128C314.694 30.3722 308.677 30.7654 303.262 33.0303C297.248 35.5452 289.702 29.0109 290.722 27.8997Z" fill="#2F2E41"/>
<path d="M153.614 101.083C139.005 100.987 124.578 97.8272 111.266 91.8079C110.474 91.4547 109.801 90.8787 109.33 90.15C108.859 89.4213 108.611 88.5714 108.614 87.7039V51.2859C108.615 50.0929 109.09 48.949 109.934 48.1054C110.777 47.2618 111.921 46.7873 113.114 46.7859H194.114C195.307 46.7873 196.451 47.2618 197.295 48.1055C198.138 48.9491 198.613 50.0929 198.614 51.2859V87.7039C198.618 88.5715 198.369 89.4214 197.898 90.1501C197.427 90.8787 196.755 91.4548 195.962 91.808C182.65 97.8272 168.224 100.987 153.614 101.083Z" fill="#1E40AF"/>
<path d="M153.603 71.5799C153.003 71.5804 152.408 71.4609 151.854 71.2283L87.6225 44.1287C86.7941 43.7793 86.0895 43.1897 85.5993 42.4361C85.1092 41.6824 84.856 40.7993 84.8725 39.9004C84.889 39.0016 85.1743 38.1282 85.6918 37.3931C86.2092 36.6579 86.935 36.0945 87.7755 35.7757L152.008 11.408C153.043 11.0137 154.187 11.0161 155.22 11.4148L218.592 35.7825C219.428 36.1039 220.148 36.6674 220.662 37.4008C221.176 38.1342 221.459 39.0042 221.476 39.8996C221.492 40.7949 221.241 41.6748 220.755 42.4267C220.269 43.1786 219.569 43.7683 218.746 44.1204L155.373 71.2195C154.813 71.4578 154.211 71.5804 153.603 71.5799Z" fill="#1E40AF"/>
<path d="M116.114 94.2859C119.428 94.2859 122.114 91.5996 122.114 88.2859C122.114 84.9722 119.428 82.2859 116.114 82.2859C112.8 82.2859 110.114 84.9722 110.114 88.2859C110.114 91.5996 112.8 94.2859 116.114 94.2859Z" fill="#3F3D56"/>
<path opacity="0.2" d="M218.965 40.2738L155.592 67.373C155.098 67.5842 154.566 67.6938 154.029 67.6951C153.491 67.6964 152.959 67.5894 152.464 67.3805L88.2323 40.2817C87.4257 39.9495 86.7527 39.358 86.3197 38.6006C86.0365 39.0917 85.861 39.6375 85.8049 40.2016C85.7487 40.7658 85.8132 41.3354 85.9941 41.8727C86.175 42.41 86.4681 42.9027 86.854 43.3181C87.2399 43.7334 87.7097 44.0619 88.2323 44.2817L152.464 71.3805C152.959 71.5894 153.491 71.6964 154.029 71.6951C154.566 71.6938 155.098 71.5842 155.592 71.373L218.965 44.2738C219.485 44.052 219.952 43.7225 220.335 43.307C220.718 42.8914 221.009 42.3994 221.188 41.8632C221.367 41.3271 221.43 40.759 221.374 40.1966C221.317 39.6342 221.142 39.0902 220.859 38.6006C220.429 39.3519 219.763 39.9401 218.965 40.2738Z" fill="black"/>
<path d="M116.618 88.2625C116.884 88.2625 117.138 88.1571 117.325 87.9696C117.513 87.7821 117.618 87.5277 117.618 87.2625V53.8011L150.6 41.7859C150.865 41.7899 151.121 41.6883 151.311 41.5036C151.501 41.3188 151.61 41.066 151.614 40.8008C151.618 40.5356 151.517 40.2797 151.332 40.0893C151.147 39.899 150.895 39.7899 150.629 39.7859L117.648 51.8011C117.383 51.795 117.119 51.8428 116.872 51.9417C116.626 52.0405 116.402 52.1884 116.215 52.3763C116.025 52.5619 115.875 52.7836 115.772 53.0283C115.67 53.273 115.618 53.5358 115.618 53.8011V87.2625C115.618 87.5277 115.724 87.782 115.911 87.9696C116.099 88.1571 116.353 88.2625 116.618 88.2625Z" fill="#3F3D56"/>
</g>
<defs>
<clipPath id="clip0_0_3">
<rect width="744" height="539.286" fill="white"/>
</clipPath>
</defs>
</svg>
