<svg width="884" height="673" viewBox="0 0 884 673" fill="none" xmlns="http://www.w3.org/2000/svg">
<g clip-path="url(#clip0_2_2)">
<path d="M883.781 606.996H0.218506V672.254H883.781V606.996Z" fill="#CCCCCC"/>
<path d="M882.556 607.051H0V604.87H882.951L882.556 607.051Z" fill="#3F3D56"/>
<path d="M693.189 251.189V444.371H190.811V251.189C190.811 187.079 215.323 125.395 259.327 78.7725C303.33 32.1495 363.496 4.11606 427.498 0.414361C432.294 0.134735 437.128 -0.00336444 442 6.22257e-05C444.776 6.22257e-05 447.542 0.0414689 450.287 0.145059C514.021 2.16193 574.584 28.4253 619.614 73.575C620.971 74.932 622.307 76.2993 623.643 77.6873C668.295 124.413 693.205 186.559 693.189 251.189Z" fill="#CCCCCC"/>
<path d="M450.287 0.145105V444.371H427.498V0.414361C432.294 0.134735 437.128 -0.00336444 442 6.22257e-05C444.776 6.22257e-05 447.542 0.0414746 450.287 0.145105Z" fill="white"/>
<path d="M642.961 100.476H241.039C247.022 92.504 253.472 84.8945 260.357 77.6873H623.643C630.528 84.8945 636.978 92.504 642.961 100.476Z" fill="white"/>
<path d="M654.956 165.733H476.907V467.159H654.956V165.733Z" fill="white"/>
<path d="M538.998 216.656H512.066V243.588H538.998V216.656Z" fill="#CCCCCC"/>
<path d="M582.388 216.656H555.456V243.588H582.388V216.656Z" fill="#CCCCCC"/>
<path d="M625.779 216.656H598.847V243.588H625.779V216.656Z" fill="#CCCCCC"/>
<path d="M539.746 278.001H512.814V304.934H539.746V278.001Z" fill="#CCCCCC"/>
<path d="M583.137 278.001H556.204V304.934H583.137V278.001Z" fill="#CCCCCC"/>
<path d="M626.527 278.001H599.595V304.934H626.527V278.001Z" fill="#CCCCCC"/>
<path d="M540.494 339.347H513.562V366.279H540.494V339.347Z" fill="#CCCCCC"/>
<path d="M583.885 339.347H556.953V366.279H583.885V339.347Z" fill="#CCCCCC"/>
<path d="M627.275 339.347H600.343V366.279H627.275V339.347Z" fill="#CCCCCC"/>
<path d="M541.242 400.692H514.31V427.625H541.242V400.692Z" fill="#CCCCCC"/>
<path d="M584.633 400.692H557.701V427.625H584.633V400.692Z" fill="#CCCCCC"/>
<path d="M628.024 400.692H601.091V427.625H628.024V400.692Z" fill="#CCCCCC"/>
<path d="M541.242 400.692H514.31V427.625H541.242V400.692Z" fill="#CCCCCC"/>
<path d="M584.633 400.692H557.701V427.625H584.633V400.692Z" fill="#CCCCCC"/>
<path d="M628.024 400.692H601.091V427.625H628.024V400.692Z" fill="#CCCCCC"/>
<path d="M250.528 383.081C271.028 383.081 287.647 366.462 287.647 345.962C287.647 325.461 271.028 308.843 250.528 308.843C230.028 308.843 213.409 325.461 213.409 345.962C213.409 366.462 230.028 383.081 250.528 383.081Z" fill="white"/>
<path d="M250.63 345.962H250.732L252.568 451.201H248.693L250.63 345.962Z" fill="white"/>
<path d="M257.389 403.285L256.534 401.661L250.398 404.891L251.253 406.515L257.389 403.285Z" fill="white"/>
<path d="M359.658 347.612C390.832 347.612 416.104 322.341 416.104 291.166C416.104 259.992 390.832 234.72 359.658 234.72C328.483 234.72 303.211 259.992 303.211 291.166C303.211 322.341 328.483 347.612 359.658 347.612Z" fill="white"/>
<path d="M359.813 291.166H359.968L362.759 451.201H356.867L359.813 291.166Z" fill="white"/>
<path d="M370.091 378.336L368.79 375.866L359.46 380.779L360.76 383.249L370.091 378.336Z" fill="white"/>
<path d="M243.235 237.267L252.77 229.64C245.363 228.823 242.319 232.863 241.073 236.061C235.286 233.657 228.986 236.807 228.986 236.807L248.065 243.733C247.102 241.162 245.427 238.919 243.235 237.267Z" fill="white"/>
<path d="M343.71 175.117L353.246 167.49C345.838 166.673 342.795 170.713 341.549 173.911C335.762 171.508 329.462 174.657 329.462 174.657L348.54 181.583C347.578 179.012 345.902 176.769 343.71 175.117Z" fill="white"/>
<path d="M305.385 234.159L314.92 226.533C307.512 225.715 304.469 229.755 303.223 232.953C297.436 230.55 291.136 233.699 291.136 233.699L310.215 240.626C309.252 238.055 307.577 235.812 305.385 234.159Z" fill="white"/>
<path d="M719.602 421.583H164.398V467.159H719.602V421.583Z" fill="#CCCCCC"/>
<path d="M81.473 540.221C81.473 540.221 -30.833 488.521 8.61996 452.669C48.073 416.817 81.473 540.221 81.473 540.221Z" fill="#CCCCCC"/>
<path d="M79.5182 552.285C79.5182 552.285 27.8982 382.679 103.911 390.79C179.923 398.901 79.5182 552.285 79.5182 552.285Z" fill="#CCCCCC"/>
<path d="M41.8815 537.243L44.0481 565.615L44.0825 566.105C44.0804 570.535 44.3043 574.963 44.7531 579.37C47.6934 608.309 60.3317 621.498 75.1021 621.498C89.8725 621.498 101.961 608.309 104.901 579.37C105.35 574.963 105.574 570.535 105.571 566.105L105.589 565.709L105.597 565.615L107.772 537.243H41.8815Z" fill="#CCCCCC"/>
<path d="M105.597 565.615L105.589 565.709L105.571 566.105C105.574 570.535 105.35 574.963 104.901 579.37H44.7531C44.3043 574.963 44.0805 570.535 44.0825 566.105L44.0481 565.615H105.597Z" fill="white"/>
<path d="M832.896 540.221C832.896 540.221 720.59 488.521 760.043 452.669C799.496 416.817 832.896 540.221 832.896 540.221Z" fill="#CCCCCC"/>
<path d="M830.941 552.285C830.941 552.285 779.321 382.679 855.334 390.79C931.346 398.901 830.941 552.285 830.941 552.285Z" fill="#CCCCCC"/>
<path d="M793.305 537.243L795.471 565.615L795.506 566.105C795.504 570.535 795.727 574.963 796.176 579.37C799.117 608.309 811.755 621.498 826.525 621.498C841.296 621.498 853.384 608.309 856.324 579.37C856.773 574.963 856.997 570.535 856.995 566.105L857.012 565.709L857.02 565.615L859.196 537.243H793.305Z" fill="#CCCCCC"/>
<path d="M857.02 565.615L857.012 565.709L856.995 566.105C856.997 570.535 856.773 574.963 856.324 579.37H796.176C795.727 574.963 795.504 570.535 795.506 566.105L795.471 565.615H857.02Z" fill="white"/>
<path d="M683.782 642.932L676.419 643.797C670.603 647.303 663.777 648.623 656.217 648.354C655.162 648.323 654.133 648.016 653.233 647.464C652.333 646.913 651.592 646.135 651.085 645.209C650.645 644.397 650.398 643.494 650.364 642.571C650.33 641.648 650.51 640.729 650.889 639.886C651.268 639.044 651.836 638.3 652.549 637.713C653.263 637.126 654.102 636.711 655.002 636.502L660.597 635.199L674.097 621.995L682.241 607.256L694.071 608.612L696.534 627.334C696.846 631.08 695.691 634.801 693.312 637.711C690.932 640.622 687.516 642.493 683.782 642.932Z" fill="#FFB8B8"/>
<path d="M569.108 633.46L561.892 635.158C556.513 639.304 549.882 641.394 542.34 641.988C541.288 642.077 540.231 641.889 539.274 641.444C538.317 640.998 537.493 640.31 536.883 639.448C536.354 638.691 536.006 637.822 535.866 636.909C535.727 635.996 535.801 635.062 536.082 634.182C536.362 633.302 536.842 632.498 537.484 631.834C538.126 631.169 538.913 630.662 539.783 630.351L545.192 628.419L557.1 613.763L563.512 598.192H575.419L579.999 616.511C580.737 620.197 580.013 624.025 577.981 627.188C575.948 630.35 572.767 632.599 569.108 633.46Z" fill="#FFB8B8"/>
<path d="M563.192 599.228L576.658 601.299L597.892 494.091L634.664 431.423L679.205 613.729L695.778 616.837C693.92 514.173 702.991 384.925 682.313 369.273L592.195 379.632L552.834 485.286L563.192 599.228Z" fill="#2F2E41"/>
<path d="M628.449 209.756C645.612 209.756 659.524 195.843 659.524 178.681C659.524 161.518 645.612 147.606 628.449 147.606C611.287 147.606 597.375 161.518 597.375 178.681C597.375 195.843 611.287 209.756 628.449 209.756Z" fill="#FFB8B8"/>
<path d="M671.954 226.329L634.664 232.544L625.342 199.397L652.273 191.111L671.954 226.329Z" fill="#FFB8B8"/>
<path d="M687.492 373.417L588.052 382.739C596.024 355.019 603.328 327.396 597.375 299.873C589.814 275.301 597.111 260.689 617.055 249.117L630.521 219.078L666.775 214.935C676.376 230.371 680.303 248.668 677.883 266.685C672.717 305.863 674.112 342.218 687.492 373.417Z" fill="#1E40AF"/>
<path d="M627.75 141.98C617.379 144.349 605.575 147.706 604.913 150.827C594.245 153.515 586.192 159.954 584.548 169.771C584.411 170.62 584.461 171.488 584.696 172.315C584.93 173.142 585.343 173.907 585.905 174.557C586.468 175.207 587.166 175.726 587.95 176.077C588.735 176.428 589.587 176.603 590.446 176.589C596.248 176.515 604.958 175.959 610.709 173.557C627.416 184.322 630.22 212.32 622.924 231.378L634.405 230.325L646.283 195.554L649.317 228.959L675.517 225.494L672.143 182.897C671.105 172.857 667.689 163.21 662.176 154.755C661.603 153.906 660.977 153.094 660.301 152.325C656.315 147.822 651.184 144.483 645.453 142.661C639.722 140.84 633.604 140.604 627.75 141.98Z" fill="#2F2E41"/>
<path d="M561.946 653.616C561.889 654.123 561.94 654.636 562.094 655.122C562.248 655.609 562.503 656.057 562.841 656.439C563.179 656.821 563.594 657.127 564.058 657.339C564.522 657.551 565.025 657.663 565.535 657.668L577.188 657.788C577.816 657.744 578.403 657.464 578.832 657.004C579.261 656.544 579.5 655.938 579.5 655.309C579.5 654.813 579.351 654.327 579.073 653.916C578.794 653.505 578.399 653.186 577.938 653.002L574.5 651.627L569.5 644.627H565.5C563.536 647.246 562.309 650.343 561.948 653.596L561.946 653.616Z" fill="#FFB8B8"/>
<path d="M534.054 653.616C534.111 654.123 534.06 654.636 533.906 655.122C533.752 655.609 533.497 656.057 533.159 656.439C532.821 656.821 532.406 657.127 531.942 657.339C531.478 657.551 530.975 657.663 530.465 657.668L518.812 657.788C518.184 657.744 517.597 657.464 517.168 657.004C516.739 656.544 516.5 655.938 516.5 655.309C516.5 654.813 516.649 654.327 516.927 653.916C517.206 653.505 517.601 653.186 518.062 653.002L521.5 651.627L526.5 644.627H530.5C532.464 647.246 533.691 650.343 534.052 653.596L534.054 653.616Z" fill="#FFB8B8"/>
<path d="M525.5 644.627H531.5L552.5 553.627L563.5 645.627H570.5L580 527.127L531.5 526.627L525.5 644.627Z" fill="#3F3D56"/>
<path d="M498.5 477.627H506.5V458.627L508.32 454.987C508.685 454.257 508.873 453.45 508.867 452.634C508.861 451.817 508.663 451.013 508.288 450.288C507.913 449.562 507.372 448.936 506.708 448.459C506.045 447.983 505.279 447.67 504.472 447.546C503.733 447.432 502.979 447.479 502.26 447.685C501.541 447.89 500.876 448.248 500.308 448.735C499.741 449.221 499.286 449.825 498.974 450.504C498.662 451.183 498.5 451.921 498.5 452.669V477.627Z" fill="#FFB8B8"/>
<path d="M546 430.627C556.217 430.627 564.5 422.344 564.5 412.127C564.5 401.91 556.217 393.627 546 393.627C535.783 393.627 527.5 401.91 527.5 412.127C527.5 422.344 535.783 430.627 546 430.627Z" fill="#FFB8B8"/>
<path d="M538.5 443.627H557.5V421.627H538.5V443.627Z" fill="#FFB8B8"/>
<path d="M529.5 529.627C546.318 540.005 564.098 538.99 582.5 530.627L578.5 437.627L557.5 436.627L535.5 439.627L524.5 448.627L529.5 529.627Z" fill="#1E40AF"/>
<path d="M509.5 496.627L531.5 479.627L524.5 448.627L511.5 472.627L507.5 468.627L495.5 477.627L509.5 496.627Z" fill="#1E40AF"/>
<path d="M607.156 439.224L600.159 443.102L590.948 426.484L587.592 424.182C586.919 423.72 586.364 423.106 585.973 422.389C585.582 421.672 585.366 420.873 585.342 420.057C585.319 419.24 585.488 418.43 585.837 417.692C586.186 416.954 586.705 416.308 587.351 415.808C587.942 415.351 588.624 415.026 589.352 414.858C590.081 414.689 590.836 414.679 591.569 414.83C592.301 414.981 592.991 415.288 593.593 415.731C594.196 416.173 594.695 416.741 595.057 417.394L597.946 422.606L607.156 439.224Z" fill="#FFB8B8"/>
<path d="M568 467.127L594.551 453.032L608.5 445.627L610.5 433.627L601.5 424.627L590.5 431.627L591.5 439.627L578.5 437.627L568 467.127Z" fill="#1E40AF"/>
<path d="M550 427.127C562.15 427.127 572 417.277 572 405.127C572 392.977 562.15 383.127 550 383.127C537.85 383.127 528 392.977 528 405.127C528 417.277 537.85 427.127 550 427.127Z" fill="#2F2E41"/>
<path d="M562 390.127C567.523 390.127 572 385.65 572 380.127C572 374.604 567.523 370.127 562 370.127C556.477 370.127 552 374.604 552 380.127C552 385.65 556.477 390.127 562 390.127Z" fill="#2F2E41"/>
<path d="M561.515 388.487C563.498 389.522 565.77 389.863 567.968 389.454C570.167 389.045 572.165 387.911 573.643 386.233C575.122 384.555 575.995 382.43 576.122 380.197C576.25 377.964 575.626 375.753 574.349 373.917C575.506 374.787 576.459 375.898 577.144 377.172C577.829 378.447 578.229 379.855 578.317 381.299C578.405 382.743 578.178 384.189 577.652 385.537C577.126 386.885 576.313 388.103 575.27 389.106C574.228 390.109 572.98 390.874 571.613 391.347C570.245 391.821 568.792 391.992 567.352 391.849C565.912 391.706 564.52 391.252 563.273 390.518C562.026 389.784 560.953 388.788 560.129 387.599C560.566 387.933 561.029 388.23 561.515 388.487Z" fill="#2F2E41"/>
<path d="M623.27 404.492L623.957 428.54C624.052 431.854 622.887 435.082 620.697 437.572C618.508 440.063 615.455 441.631 612.156 441.961C610.042 442.172 607.909 441.867 605.94 441.071C603.97 440.276 602.224 439.014 600.85 437.393C599.477 435.773 598.517 433.844 598.054 431.771C597.592 429.698 597.639 427.544 598.193 425.493L603.589 405.527L619.127 320.589L618.091 270.87L651.238 269.834L645.023 325.769L623.27 404.492Z" fill="#FFB8B8"/>
<path d="M653.309 275.013C641.3 270.439 628.029 270.439 616.019 275.013L618.091 233.58C618.091 229.184 619.837 224.969 622.945 221.861C626.053 218.752 630.269 217.006 634.664 217.006C639.06 217.006 643.275 218.752 646.383 221.861C649.492 224.969 651.238 229.184 651.238 233.58L653.309 275.013Z" fill="#1E40AF"/>
</g>
<defs>
<clipPath id="clip0_2_2">
<rect width="883.781" height="672.254" fill="white"/>
</clipPath>
</defs>
</svg>
